# xmcd CD database file generated by MAGIX-FreeDB- v3.0beta1
#
# Track frame offsets:
#	150
#	16673
#	28122
#	44902
#	54472
#	66508
#	85498
#	96250
#	118278
#	127848
#	143244
#	157699
#
# Disc length: 2195
#
# Revision: 1
# Processed by: cddbd v1.5.2PL0 Copyright (c) Steve Scherf et al.
# Submitted via: MAGIX-FreeDB- v3.0beta1
#
DISCID=a508910c
DTITLE=So klingt Weihnachten - smooth christmas
DYEAR=2014
DGENRE=chrismas
TTITLE0=o Tannenbaum
TTITLE1=Morgen kommt der Weihnachtsmann
TTITLE2=Süßer die Glocken nie klingen
TTITLE3=Ihr Kinderlein kommet
TTITLE4=Zu Bethlehem geboren
TTITLE5=Air
TTITLE6=O Heiland reiß die Himmel auf
TTITLE7=Es ist ein Ros entsprungen
TTITLE8=Kling Glöckchen
TTITLE9=Stille Nacht
TTITLE10=Schneeflöckchen, Weißröckchen
TTITLE11=Amazing Grace
EXTD=
EXTT0=
EXTT1=
EXTT2=
EXTT3=
EXTT4=
EXTT5=
EXTT6=
EXTT7=
EXTT8=
EXTT9=
EXTT10=
EXTT11=
PLAYORDER=
